<svg width="171" height="146" viewBox="0 0 171 146" fill="none" xmlns="http://www.w3.org/2000/svg">
    <g clip-path="url(#clip0_990_1051)">
        <path fill-rule="evenodd" clip-rule="evenodd" d="M83.9367 115.304C74.4558 115.021 65.2718 111.933 57.546 106.43C49.8203 100.927 43.8999 93.2572 40.5333 84.3896C37.1668 75.5221 36.5054 65.8553 38.6328 56.6118C40.7602 47.3684 45.5808 38.9634 52.4851 32.4596C59.3894 25.9559 68.0671 21.6456 77.4211 20.0737C86.7751 18.5018 96.3852 19.739 105.036 23.6288C113.687 27.5187 120.99 33.8864 126.022 41.9268C131.053 49.9673 133.588 59.3192 133.305 68.8001C132.925 81.5136 127.51 93.5555 118.252 102.277C108.994 110.998 96.6501 115.684 83.9367 115.304ZM57.9042 77.3671C56.9045 76.2941 56.3683 74.8701 56.4121 73.4042C56.4559 71.9383 57.0761 70.5489 58.138 69.5374L61.0438 66.8159C61.5381 66.346 62.1218 65.9802 62.7602 65.7402C63.3987 65.5003 64.0789 65.391 64.7604 65.419C65.4419 65.447 66.1107 65.6115 66.7274 65.903C67.344 66.1945 67.8958 66.6069 68.35 67.1157L73.1808 72.437C73.411 72.6949 73.6914 72.9032 74.0048 73.0491C74.3181 73.1951 74.658 73.2757 75.0035 73.2861C75.349 73.2964 75.6931 73.2362 76.0146 73.1092C76.3361 72.9822 76.6283 72.791 76.8735 72.5473L103.062 47.117C103.549 46.6328 104.129 46.2521 104.768 45.9979C105.406 45.7437 106.089 45.6211 106.775 45.6376C107.462 45.6541 108.138 45.8092 108.764 46.0938C109.389 46.3784 109.95 46.7864 110.414 47.2935L113.071 50.146C114.046 51.214 114.567 52.6193 114.524 54.0645C114.48 55.5097 113.877 56.8814 112.84 57.8893L78.0864 91.1577C77.6012 91.6309 77.0263 92.0025 76.3956 92.2506C75.7649 92.4987 75.0909 92.6183 74.4133 92.6026C73.7357 92.5868 73.0681 92.4359 72.4496 92.1587C71.8311 91.8815 71.2742 91.4836 70.8115 90.9884L57.9042 77.3671Z" fill="#930405"/>
        <path d="M124.519 33.0073C126.809 33.0756 128.721 31.2749 128.789 28.9853C128.857 26.6956 127.057 24.784 124.767 24.7156C122.477 24.6472 120.566 26.4479 120.497 28.7376C120.429 31.0273 122.23 32.9389 124.519 33.0073Z" fill="#930405"/>
    </g>
    <path d="M93.7986 145.833C95.802 145.893 97.4747 144.317 97.5345 142.314C97.5944 140.31 96.0188 138.637 94.0153 138.578C92.0118 138.518 90.3392 140.093 90.2793 142.097C90.2195 144.1 91.7951 145.773 93.7986 145.833Z" fill="#930405"/>
    <path d="M126.346 132.8C127.778 132.843 128.972 131.718 129.015 130.287C129.058 128.856 127.932 127.661 126.501 127.618C125.07 127.575 123.876 128.701 123.833 130.132C123.79 131.563 124.915 132.758 126.346 132.8Z" fill="#930405"/>
    <path d="M45.9284 133.51C48.2181 133.579 50.1297 131.778 50.1981 129.488C50.2665 127.199 48.4658 125.287 46.1761 125.219C43.8864 125.15 41.9748 126.951 41.9064 129.241C41.838 131.53 43.6387 133.442 45.9284 133.51Z" fill="#930405"/>
    <path d="M13.3235 105.046C15.47 105.11 17.2622 103.422 17.3263 101.275C17.3904 99.1286 15.7022 97.3364 13.5557 97.2723C11.4091 97.2082 9.61696 98.8964 9.55284 101.043C9.48872 103.19 11.1769 104.982 13.3235 105.046Z" fill="#930405"/>
    <path d="M139.829 115.568C141.546 115.619 142.98 114.268 143.031 112.551C143.082 110.834 141.732 109.4 140.015 109.349C138.297 109.298 136.864 110.648 136.812 112.365C136.761 114.083 138.112 115.516 139.829 115.568Z" fill="#930405"/>
    <path d="M163.336 110.046C165.625 110.114 167.537 108.313 167.605 106.024C167.674 103.734 165.873 101.822 163.583 101.754C161.294 101.686 159.382 103.486 159.314 105.776C159.245 108.066 161.046 109.977 163.336 110.046Z" fill="#930405"/>
    <path d="M142.721 88.164C144.153 88.2068 145.347 87.0813 145.39 85.6503C145.433 84.2192 144.307 83.0245 142.876 82.9817C141.445 82.939 140.251 84.0644 140.208 85.4955C140.165 86.9265 141.29 88.1213 142.721 88.164Z" fill="#930405"/>
    <path d="M140.472 76.6856C142.762 76.754 144.674 74.9533 144.742 72.6636C144.81 70.3739 143.01 68.4623 140.72 68.3939C138.43 68.3255 136.519 70.1262 136.45 72.4159C136.382 74.7056 138.183 76.6172 140.472 76.6856Z" fill="#930405"/>
    <path d="M155.021 58.4473C156.452 58.49 157.647 57.3646 157.69 55.9335C157.733 54.5025 156.607 53.3077 155.176 53.265C153.745 53.2222 152.55 54.3477 152.508 55.7787C152.465 57.2098 153.59 58.4045 155.021 58.4473Z" fill="#930405"/>
    <path d="M149.662 46.8759C151.952 46.9443 153.863 45.1436 153.932 42.8539C154 40.5642 152.199 38.6526 149.91 38.5842C147.62 38.5158 145.708 40.3165 145.64 42.6062C145.571 44.8959 147.372 46.8075 149.662 46.8759Z" fill="#930405"/>
    <path d="M9.77615 128.281C11.4934 128.332 12.9271 126.982 12.9784 125.264C13.0297 123.547 11.6792 122.113 9.96192 122.062C8.24465 122.011 6.81095 123.361 6.75966 125.079C6.70836 126.796 8.05889 128.229 9.77615 128.281Z" fill="#930405"/>
    <path d="M130.371 32.8136C132.374 32.8734 134.047 31.2978 134.107 29.2943C134.167 27.2908 132.591 25.6182 130.588 25.5583C128.584 25.4985 126.911 27.0741 126.852 29.0776C126.792 31.0811 128.367 32.7537 130.371 32.8136Z" fill="#930405"/>
    <path d="M135.055 23.617C137.201 23.6811 138.994 21.993 139.058 19.8464C139.122 17.6998 137.434 15.9077 135.287 15.8436C133.141 15.7794 131.348 17.4676 131.284 19.6142C131.22 21.7607 132.908 23.5529 135.055 23.617Z" fill="#930405"/>
    <path d="M97.9168 7.98428C99.3479 8.02702 100.543 6.90158 100.585 5.47053C100.628 4.03948 99.5027 2.84473 98.0716 2.80198C96.6406 2.75923 95.4458 3.88468 95.4031 5.31573C95.3603 6.74678 96.4858 7.94153 97.9168 7.98428Z" fill="#930405"/>
    <path d="M48.7225 22.5942C50.1535 22.6369 51.3483 21.5115 51.391 20.0805C51.4338 18.6494 50.3083 17.4547 48.8773 17.4119C47.4462 17.3692 46.2515 18.4946 46.2087 19.9257C46.166 21.3567 47.2914 22.5515 48.7225 22.5942Z" fill="#930405"/>
    <path d="M65.074 30.863C67.0774 30.9228 68.7501 29.3472 68.8099 27.3438C68.8698 25.3403 67.2942 23.6676 65.2907 23.6078C63.2872 23.5479 61.6146 25.1236 61.5547 27.127C61.4949 29.1305 63.0705 30.8031 65.074 30.863Z" fill="#930405"/>
    <path d="M34.0115 28.8977C35.7288 28.949 37.1625 27.5985 37.2138 25.8812C37.2651 24.164 35.9145 22.7303 34.1973 22.679C32.48 22.6277 31.0463 23.9782 30.995 25.6955C30.9437 27.4127 32.2942 28.8464 34.0115 28.8977Z" fill="#930405"/>
    <path d="M22.6794 8.84899C24.9691 8.91738 26.8807 7.11668 26.9491 4.82699C27.0175 2.53731 25.2168 0.625712 22.9271 0.557315C20.6374 0.488918 18.7258 2.28963 18.6574 4.57931C18.589 6.86899 20.3897 8.78059 22.6794 8.84899Z" fill="#930405"/>
    <path d="M6.59494 52.4574C8.74152 52.5215 10.5336 50.8333 10.5978 48.6867C10.6619 46.5402 8.97373 44.748 6.82715 44.6839C4.68057 44.6198 2.88845 46.308 2.82433 48.4545C2.7602 50.6011 4.44837 52.3932 6.59494 52.4574Z" fill="#930405"/>
    <path d="M24.0877 65.9473C25.5188 65.99 26.7135 64.8646 26.7563 63.4335C26.799 62.0025 25.6736 60.8077 24.2425 60.765C22.8115 60.7222 21.6167 61.8477 21.574 63.2787C21.5312 64.7098 22.6567 65.9045 24.0877 65.9473Z" fill="#930405"/>
    <path d="M28.4948 92.0136C30.7845 92.082 32.6961 90.2813 32.7645 87.9916C32.8329 85.7019 31.0322 83.7903 28.7425 83.7219C26.4528 83.6535 24.5412 85.4542 24.4728 87.7439C24.4044 90.0336 26.2051 91.9452 28.4948 92.0136Z" fill="#930405"/>
    <path d="M89.2684 19.6558C90.6994 19.6986 91.8942 18.5731 91.9369 17.1421C91.9797 15.711 90.8542 14.5163 89.4232 14.4735C87.9921 14.4308 86.7974 15.5562 86.7546 16.9873C86.7119 18.4183 87.8373 19.6131 89.2684 19.6558Z" fill="#930405"/>
    <path d="M97.7537 30.8018C99.471 30.8531 100.905 29.5026 100.956 27.7853C101.007 26.0681 99.6567 24.6344 97.9395 24.5831C96.2222 24.5318 94.7885 25.8823 94.7372 27.5996C94.6859 29.3168 96.0364 30.7505 97.7537 30.8018Z" fill="#930405"/>
    <defs>
        <clipPath id="clip0_990_1051">
            <rect width="95.9152" height="95.9152" fill="white" transform="translate(38.8643 18) rotate(1.71102)"/>
        </clipPath>
    </defs>
</svg>
