<svg width="240" height="83" viewBox="0 0 240 83" fill="none" xmlns="http://www.w3.org/2000/svg">
    <path d="M101.578 38.0672C93.3027 36.177 93.1302 28.639 86.4551 27.6185C86.4551 27.6185 88.2965 28.639 90.9299 33.8754C93.0257 38.043 93.0515 44.3217 110.057 42.9127C125.071 41.6688 162.645 36.7907 162.645 36.7907C162.645 36.7907 108.073 39.5507 101.578 38.0672Z" fill="url(#paint0_linear_14_1147)"/>
    <path d="M204.502 23.7141C193.904 23.7141 185.197 31.7811 184.182 42.1235C186.812 33.7216 194.919 27.5951 204.502 27.5951C214.087 27.5951 222.193 33.7216 224.823 42.1235C223.808 31.7811 215.101 23.7141 204.502 23.7141Z" fill="url(#paint1_linear_14_1147)"/>
    <path d="M180.656 10.3338C168.554 5.87968 152.636 0 125.854 0C113.064 0 97.0238 6.08682 86.6548 10.7414C80.797 13.3766 75.4979 15.4963 71.9747 16.8425C71.9603 16.8425 71.9461 16.8569 71.9317 16.8569C71.9173 16.8569 71.9173 16.8713 71.903 16.8713C68.5661 18.1316 64.9999 18.7475 61.4338 18.59C57.5954 18.4181 53.9719 18.3466 50.5492 18.3466C-8.42871 18.4181 -1.06867 43.109 2.09798 43.109C2.09798 43.109 8.23974e-05 21.5546 55.8196 24.9345C48.5441 27.5411 43.1875 34.1434 42.4 42.1208C45.0352 33.7282 53.1415 27.5984 62.7229 27.5984C72.3041 27.5984 80.4104 33.7282 83.0456 42.1208C82.172 33.2556 75.6413 26.0804 67.1197 24.2042C90.665 23.6886 133.23 26.1663 152.665 22.0703C176.21 17.0863 195.788 13.9927 224.088 23.2734C225.42 23.7174 226.866 23.789 228.227 23.4738L240 20.7238C240 20.7238 211.463 9.99011 180.656 10.3338ZM124.35 3.55184C142.94 2.34869 161.057 7.00332 173.99 10.6842C168.225 10.8003 162.174 11.9302 156.403 13.3766C144.129 16.4702 124.021 17.5013 102.366 17.4871C102.61 17.1146 102.853 16.6708 103.054 16.2124C104.185 13.8064 97.5683 14.2502 94.5607 14.7802C92.1545 15.2099 90.7796 16.771 90.3214 17.3725C87.958 17.3296 85.5808 17.2865 83.2175 17.2292C90.35 13.7347 106.004 4.75483 124.35 3.55184Z" fill="url(#paint2_linear_14_1147)"/>
    <path d="M61.1669 68.408C61.1669 65.976 61.6682 63.8107 62.6709 61.912C63.8442 59.672 65.6042 58.1147 67.9509 57.24C69.2522 56.7707 70.6069 56.536 72.0149 56.536C73.4229 56.536 74.7775 56.6427 76.0789 56.856C77.3802 57.0693 78.2335 57.2613 78.6389 57.432C78.7669 58.2213 78.8309 59.0533 78.8309 59.928C78.8309 60.7813 78.8095 61.7413 78.7669 62.808L76.9429 63.064C76.4735 60.5893 76.0575 59.224 75.6949 58.968C75.5029 58.8187 75.0015 58.6587 74.1909 58.488C73.4015 58.3173 72.6122 58.232 71.8229 58.232C69.4762 58.232 67.7055 59.096 66.5109 60.824C65.3162 62.552 64.7189 64.824 64.7189 67.64C64.7189 70.968 65.4762 73.4427 66.9909 75.064C68.5055 76.6853 70.3829 77.496 72.6229 77.496C73.4335 77.496 74.1909 77.4 74.8949 77.208C75.6202 77.016 76.0895 76.8347 76.3029 76.664C76.5375 76.4933 76.8895 75.1387 77.3589 72.6L79.1189 72.664C79.1189 74.2853 79.0015 76.0133 78.7669 77.848C78.1055 78.2107 77.1029 78.5413 75.7589 78.84C74.4362 79.1387 73.0815 79.288 71.6949 79.288C68.2175 79.288 65.5935 78.264 63.8229 76.216C62.0522 74.168 61.1669 71.5653 61.1669 68.408ZM81.2346 75.064C81.2346 73.464 81.9173 72.2693 83.2826 71.48C84.648 70.6907 86.8666 70.2853 89.9386 70.264V69.24C89.9386 66.4667 88.936 65.08 86.9306 65.08C85.9706 65.08 85.3626 65.2187 85.1066 65.496C84.872 65.7733 84.616 66.68 84.3386 68.216L82.6106 68.024C82.44 67.3627 82.3546 66.68 82.3546 65.976C82.3546 65.2507 82.3653 64.7813 82.3866 64.568C83.6453 63.7787 85.2986 63.384 87.3466 63.384C89.3946 63.384 90.8133 63.7787 91.6026 64.568C92.4133 65.3573 92.8186 66.6587 92.8186 68.472V75.832C92.8186 76.3867 92.9466 76.7813 93.2026 77.016C93.48 77.2293 94.1626 77.4427 95.2506 77.656L95.0586 78.68L91.2186 79.096C91.0053 79.096 90.7813 78.8933 90.5466 78.488C90.312 78.0827 90.1946 77.7093 90.1946 77.368C90.1946 77.0053 90.2053 76.7387 90.2266 76.568L89.9706 76.472L89.5866 77.048C88.584 78.5413 87.208 79.288 85.4586 79.288C84.264 79.288 83.2613 78.9147 82.4506 78.168C81.64 77.4213 81.2346 76.3867 81.2346 75.064ZM84.3386 74.776C84.3386 75.544 84.5413 76.1307 84.9466 76.536C85.352 76.92 85.928 77.112 86.6746 77.112C87.4213 77.112 88.264 76.7493 89.2026 76.024C89.6933 75.64 89.9386 75.2347 89.9386 74.808V71.672C88.0186 71.7147 86.6 71.9707 85.6826 72.44C84.7866 72.9093 84.3386 73.688 84.3386 74.776ZM97.5456 79L97.3536 77.752C98.4843 77.56 99.1776 77.3467 99.4336 77.112C99.6896 76.8773 99.8176 76.4827 99.8176 75.928V66.712C99.8176 66.1573 99.6683 65.7627 99.3696 65.528C99.0923 65.272 98.3563 65.0587 97.1616 64.888L97.3536 63.864L101.706 63.448C101.855 63.448 102.015 63.6613 102.186 64.088C102.356 64.5147 102.442 64.9627 102.442 65.432C102.442 65.88 102.399 66.4027 102.314 67L102.57 67.096L102.986 66.168C103.37 65.3147 103.946 64.6427 104.714 64.152C105.503 63.64 106.292 63.384 107.082 63.384C107.892 63.384 108.639 63.5547 109.322 63.896C109.322 65.6453 109.162 67.3947 108.842 69.144L107.274 69.304C107.103 67.512 106.932 66.4987 106.762 66.264C106.591 66.008 106.303 65.88 105.898 65.88C105.514 65.88 105.055 66.0613 104.522 66.424C103.988 66.7653 103.551 67.1387 103.21 67.544C102.868 67.928 102.698 68.568 102.698 69.464V76.696C102.698 76.9733 102.751 77.1547 102.858 77.24C102.986 77.304 103.146 77.3467 103.338 77.368L106.25 77.752L106.122 79H97.5456ZM111.678 79L111.486 77.752C112.617 77.56 113.299 77.3467 113.534 77.112C113.79 76.8773 113.918 76.4293 113.918 75.768V60.056C113.918 59.3947 113.79 58.9467 113.534 58.712C113.299 58.4773 112.617 58.264 111.486 58.072L111.678 56.824H119.518L119.646 58.072L117.662 58.456C117.235 58.5413 117.022 58.8187 117.022 59.288V77.368L119.87 77.336C122.238 77.2933 123.625 77.2187 124.03 77.112C124.371 77.0053 124.969 75.3627 125.822 72.184L127.582 72.344C127.603 72.7067 127.614 73.4533 127.614 74.584C127.614 75.6933 127.497 77.1653 127.262 79H111.678ZM129.266 75.064C129.266 73.464 129.949 72.2693 131.314 71.48C132.679 70.6907 134.898 70.2853 137.97 70.264V69.24C137.97 66.4667 136.967 65.08 134.962 65.08C134.002 65.08 133.394 65.2187 133.138 65.496C132.903 65.7733 132.647 66.68 132.37 68.216L130.642 68.024C130.471 67.3627 130.386 66.68 130.386 65.976C130.386 65.2507 130.397 64.7813 130.418 64.568C131.677 63.7787 133.33 63.384 135.378 63.384C137.426 63.384 138.845 63.7787 139.634 64.568C140.445 65.3573 140.85 66.6587 140.85 68.472V75.832C140.85 76.3867 140.978 76.7813 141.234 77.016C141.511 77.2293 142.194 77.4427 143.282 77.656L143.09 78.68L139.25 79.096C139.037 79.096 138.813 78.8933 138.578 78.488C138.343 78.0827 138.226 77.7093 138.226 77.368C138.226 77.0053 138.237 76.7387 138.258 76.568L138.002 76.472L137.618 77.048C136.615 78.5413 135.239 79.288 133.49 79.288C132.295 79.288 131.293 78.9147 130.482 78.168C129.671 77.4213 129.266 76.3867 129.266 75.064ZM132.37 74.776C132.37 75.544 132.573 76.1307 132.978 76.536C133.383 76.92 133.959 77.112 134.706 77.112C135.453 77.112 136.295 76.7493 137.234 76.024C137.725 75.64 137.97 75.2347 137.97 74.808V71.672C136.05 71.7147 134.631 71.9707 133.714 72.44C132.818 72.9093 132.37 73.688 132.37 74.776ZM145.801 79L145.609 77.752C146.654 77.5387 147.284 77.3253 147.497 77.112C147.732 76.8773 147.849 76.4827 147.849 75.928V66.712C147.849 66.1573 147.71 65.7733 147.433 65.56C147.177 65.3253 146.505 65.1013 145.417 64.888L145.609 63.864L149.737 63.448C149.886 63.448 150.036 63.7467 150.185 64.344C150.356 64.9413 150.441 65.464 150.441 65.912V66.104L150.697 66.2L151.081 65.752C152.425 64.1733 154.068 63.384 156.009 63.384C157.374 63.384 158.452 63.8 159.241 64.632C160.03 65.4427 160.425 66.584 160.425 68.056V76.696C160.425 76.952 160.478 77.1227 160.585 77.208C160.713 77.272 160.873 77.3253 161.065 77.368L162.633 77.752L162.505 79H155.657L155.465 77.752C156.425 77.56 157.012 77.3467 157.225 77.112C157.438 76.8773 157.545 76.4827 157.545 75.928V69.016C157.545 68.0133 157.364 67.2133 157.001 66.616C156.638 65.9973 155.924 65.688 154.857 65.688C153.812 65.688 152.67 66.104 151.433 66.936C151.241 67.064 151.102 67.16 151.017 67.224C150.825 67.4373 150.729 67.832 150.729 68.408V76.664C150.729 76.8987 150.761 77.0587 150.825 77.144C150.91 77.2293 151.092 77.304 151.369 77.368L152.777 77.752L152.649 79H145.801ZM174.879 76.888C173.642 78.488 172.159 79.288 170.431 79.288C168.703 79.288 167.285 78.6053 166.175 77.24C165.066 75.8533 164.511 73.9653 164.511 71.576C164.511 69.1867 165.141 67.224 166.399 65.688C167.658 64.152 169.418 63.384 171.679 63.384C173.237 63.384 174.389 63.6613 175.135 64.216L175.359 64.12C175.274 63.7787 175.231 63.3093 175.231 62.712V57.336C175.231 56.888 175.007 56.5573 174.559 56.344C174.133 56.1093 173.354 55.9173 172.223 55.768L172.415 54.744C174.698 54.4453 176.479 54.296 177.759 54.296L178.111 54.616V75.864C178.111 76.4187 178.239 76.8133 178.495 77.048C178.773 77.2613 179.455 77.4747 180.543 77.688L180.351 78.712L176.511 79.128C176.298 79.128 176.063 78.9147 175.807 78.488C175.551 78.0613 175.423 77.6773 175.423 77.336C175.423 76.9947 175.434 76.7387 175.455 76.568L175.199 76.472L174.879 76.888ZM167.615 70.808C167.615 72.92 167.946 74.4773 168.607 75.48C169.29 76.4827 170.143 76.984 171.167 76.984C172.191 76.984 173.258 76.6213 174.367 75.896C174.943 75.512 175.231 75.0213 175.231 74.424V66.776C174.357 65.7307 172.991 65.208 171.135 65.208C170.218 65.208 169.493 65.5067 168.959 66.104C168.063 67.1067 167.615 68.6747 167.615 70.808ZM182.922 75.064C182.922 73.464 183.605 72.2693 184.97 71.48C186.335 70.6907 188.554 70.2853 191.626 70.264V69.24C191.626 66.4667 190.623 65.08 188.618 65.08C187.658 65.08 187.05 65.2187 186.794 65.496C186.559 65.7733 186.303 66.68 186.026 68.216L184.298 68.024C184.127 67.3627 184.042 66.68 184.042 65.976C184.042 65.2507 184.053 64.7813 184.074 64.568C185.333 63.7787 186.986 63.384 189.034 63.384C191.082 63.384 192.501 63.7787 193.29 64.568C194.101 65.3573 194.506 66.6587 194.506 68.472V75.832C194.506 76.3867 194.634 76.7813 194.89 77.016C195.167 77.2293 195.85 77.4427 196.938 77.656L196.746 78.68L192.906 79.096C192.693 79.096 192.469 78.8933 192.234 78.488C191.999 78.0827 191.882 77.7093 191.882 77.368C191.882 77.0053 191.893 76.7387 191.914 76.568L191.658 76.472L191.274 77.048C190.271 78.5413 188.895 79.288 187.146 79.288C185.951 79.288 184.949 78.9147 184.138 78.168C183.327 77.4213 182.922 76.3867 182.922 75.064ZM186.026 74.776C186.026 75.544 186.229 76.1307 186.634 76.536C187.039 76.92 187.615 77.112 188.362 77.112C189.109 77.112 189.951 76.7493 190.89 76.024C191.381 75.64 191.626 75.2347 191.626 74.808V71.672C189.706 71.7147 188.287 71.9707 187.37 72.44C186.474 72.9093 186.026 73.688 186.026 74.776Z" fill="#FAE6E6"/>
    <defs>
        <linearGradient id="paint0_linear_14_1147" x1="0.940051" y1="37.7803" x2="313.934" y2="29.8564" gradientUnits="userSpaceOnUse">
            <stop stop-color="#FF193A"/>
            <stop offset="0.3315" stop-color="#F3903F"/>
            <stop offset="0.7191" stop-color="#FDC70C"/>
            <stop offset="0.8036" stop-color="#FDCA10"/>
            <stop offset="0.8829" stop-color="#FED51B"/>
            <stop offset="0.9599" stop-color="#FEE72E"/>
            <stop offset="1" stop-color="#FFF33B"/>
        </linearGradient>
        <linearGradient id="paint1_linear_14_1147" x1="0.953716" y1="38.3258" x2="313.948" y2="30.4018" gradientUnits="userSpaceOnUse">
            <stop stop-color="#FF193A"/>
            <stop offset="0.3315" stop-color="#F3903F"/>
            <stop offset="0.7191" stop-color="#FDC70C"/>
            <stop offset="0.8036" stop-color="#FDCA10"/>
            <stop offset="0.8829" stop-color="#FED51B"/>
            <stop offset="0.9599" stop-color="#FEE72E"/>
            <stop offset="1" stop-color="#FFF33B"/>
        </linearGradient>
        <linearGradient id="paint2_linear_14_1147" x1="0.583175" y1="23.6833" x2="313.576" y2="15.7593" gradientUnits="userSpaceOnUse">
            <stop stop-color="#FF193A"/>
            <stop offset="0.3315" stop-color="#F3903F"/>
            <stop offset="0.7191" stop-color="#FDC70C"/>
            <stop offset="0.8036" stop-color="#FDC710"/>
            <stop offset="0.8829" stop-color="#FEC51B"/>
            <stop offset="0.9599" stop-color="#FEC32E"/>
            <stop offset="1" stop-color="#FFC13B"/>
        </linearGradient>
    </defs>
</svg>
